<?xml version="1.0" encoding="utf-8"?>
<!-- Generator: Adobe Illustrator 16.0.3, SVG Export Plug-In . SVG Version: 6.00 Build 0)  -->
<!DOCTYPE svg PUBLIC "-//W3C//DTD SVG 1.1//EN" "http://www.w3.org/Graphics/SVG/1.1/DTD/svg11.dtd">
<svg version="1.1"
	 id="svg2" xmlns:dc="http://purl.org/dc/elements/1.1/" xmlns:cc="http://creativecommons.org/ns#" xmlns:rdf="http://www.w3.org/1999/02/22-rdf-syntax-ns#" xmlns:svg="http://www.w3.org/2000/svg" xmlns:sodipodi="http://sodipodi.sourceforge.net/DTD/sodipodi-0.dtd" xmlns:inkscape="http://www.inkscape.org/namespaces/inkscape" sodipodi:docname="OctoPi.svg" inkscape:version="0.48.3.1 r9886"
	 xmlns="http://www.w3.org/2000/svg" xmlns:xlink="http://www.w3.org/1999/xlink" x="0px" y="0px" width="505.75px"
	 height="407.14px" viewBox="0 0 505.75 407.14" enable-background="new 0 0 505.75 407.14" xml:space="preserve">
<sodipodi:namedview  fit-margin-left="0" fit-margin-top="0" showgrid="false" inkscape:cy="210.70307" inkscape:cx="368.29236" inkscape:zoom="2.0000001" borderopacity="1.0" bordercolor="#666666" pagecolor="#ffffff" id="base" fit-margin-bottom="0" fit-margin-right="0" inkscape:window-maximized="1" inkscape:window-y="-3" inkscape:current-layer="g2997" inkscape:window-x="-2" inkscape:pageshadow="2" inkscape:document-units="px" inkscape:pageopacity="0.0" inkscape:window-height="1014" inkscape:window-width="1920">
	</sodipodi:namedview>
<g>
	<g>
		<defs>
			<rect id="SVGID_1_" x="-112.005" y="-161.31" width="729.761" height="729.761"/>
		</defs>
		<clipPath id="SVGID_2_">
			<use xlink:href="#SVGID_1_"  overflow="visible"/>
		</clipPath>
		<g clip-path="url(#SVGID_2_)">
			<defs>
				<rect id="SVGID_3_" x="-112.005" y="-161.31" width="729.761" height="729.761"/>
			</defs>
			<clipPath id="SVGID_4_">
				<use xlink:href="#SVGID_3_"  overflow="visible"/>
			</clipPath>
			<path clip-path="url(#SVGID_4_)" fill="#DE9627" d="M338.149,15.443H167.602c-56.807,0-102.854,46.048-102.854,102.853v170.55
				c0,56.806,46.047,102.854,102.854,102.854h170.548c56.807,0,102.854-46.048,102.854-102.854v-170.55
				C441.003,61.491,394.956,15.443,338.149,15.443 M389.828,169.394c0,6.589-5.34,11.933-11.931,11.933
				c-6.588,0-11.932-5.344-11.932-11.933v-6.06c0-4.261-1.659-8.263-4.672-11.276l-56.903-56.908
				c-3.015-3.011-7.018-4.67-11.273-4.67h-80.48c-4.259,0-8.263,1.659-11.277,4.67l-56.905,56.908
				c-3.013,3.013-4.671,7.015-4.671,11.276v80.477c0,4.26,1.658,8.261,4.671,11.275l56.905,56.906
				c3.012,3.009,7.018,4.668,11.277,4.668h80.48c4.256,0,8.261-1.659,11.273-4.668l56.903-56.906
				c3.013-3.015,4.672-7.016,4.672-11.275v-6.063c0-6.591,5.344-11.933,11.932-11.933c6.591,0,11.931,5.342,11.931,11.933v6.063
				c0,10.632-4.137,20.629-11.66,28.147l-56.905,56.904c-7.519,7.521-17.516,11.661-28.146,11.661h-80.48
				c-10.633,0-20.63-4.141-28.149-11.661l-56.905-56.904c-7.522-7.519-11.662-17.516-11.662-28.147v-80.477
				c0-10.633,4.14-20.63,11.662-28.15l56.905-56.903c7.521-7.523,17.516-11.663,28.149-11.663h80.48
				c10.63,0,20.627,4.139,28.146,11.663l56.905,56.903c7.523,7.521,11.66,17.518,11.66,28.15V169.394z M232.326,215.5
				c-6.588,0-11.931-5.34-11.931-11.93c0-6.588,5.343-11.931,11.931-11.931h8.617v-8.621c0-6.587,5.344-11.933,11.932-11.933
				c6.59,0,11.931,5.346,11.931,11.933v8.621h8.616c6.591,0,11.934,5.342,11.934,11.931c0,6.59-5.343,11.93-11.934,11.93h-8.616
				v8.617c0,6.591-5.341,11.934-11.931,11.934c-6.588,0-11.932-5.343-11.932-11.934V215.5H232.326z M277.365,144.446h-48.979
				l-34.635,34.634v48.98l34.635,34.635h48.979l33.388-33.386c4.658-4.66,12.216-4.66,16.874,0c4.661,4.657,4.661,12.212,0,16.87
				l-35.904,35.905c-2.842,2.844-6.778,4.477-10.799,4.477h-56.097c-4.021,0-7.957-1.633-10.797-4.477l-39.668-39.667
				c-2.841-2.829-4.474-6.77-4.474-10.799V175.52c0-4.085,1.59-7.926,4.486-10.809l39.656-39.655
				c2.826-2.839,6.769-4.474,10.797-4.474h56.097c4.029,0,7.973,1.635,10.812,4.488l35.898,35.894c4.658,4.66,4.658,12.214,0,16.873
				c-4.66,4.663-12.215,4.659-16.874,0.001L277.365,144.446z"/>
		</g>
	</g>
</g>
</svg>
